<svg xmlns="http://www.w3.org/2000/svg" viewBox="0 0 600 50" fill="currentColor">
  <!-- M -->
  <path d="M0,45 V5 H6 L24,30 L42,5 H48 V45 H42 V15 L24,40 L6,15 V45 Z"/>
  <!-- A -->
  <path d="M60,45 L78,5 H84 L102,45 H96 L91,33 H71 L66,45 Z M74,28 H88 L81,12 Z"/>
  <!-- K -->
  <path d="M114,45 V5 H120 V23 L144,5 H152 L130,22 L154,45 H146 L120,24 V45 Z"/>
  <!-- I -->
  <path d="M164,45 V5 H170 V45 Z"/>
  <!-- M -->
  <path d="M186,45 V5 H192 L210,30 L228,5 H234 V45 H228 V15 L210,40 L192,15 V45 Z"/>
  <!-- A -->
  <path d="M246,45 L264,5 H270 L288,45 H282 L277,33 H257 L252,45 Z M260,28 H274 L267,12 Z"/>
  <!-- K -->
  <path d="M300,45 V5 H306 V23 L330,5 H338 L316,22 L340,45 H332 L306,24 V45 Z"/>
  <!-- I -->
  <path d="M350,45 V5 H356 V45 Z"/>
</svg>
